<svg xmlns="http://www.w3.org/2000/svg" viewBox="0 0 37.9 82.8" xml:space="preserve"><path fill="currentColor" d="M21.1 70.7h-6.5C6.5 70.7 0 64.1 0 56.1v-6.5h6.5c8 0 14.6 6.5 14.6 14.6v6.5zM4.8 54.3V56c0 5.4 4.4 9.8 9.8 9.8h1.7v-1.7c0-5.4-4.4-9.8-9.8-9.8H4.8z"/><path fill="currentColor" d="M21.1 55.5h-6.5C6.5 55.5 0 48.9 0 40.9v-6.5h6.5c8 0 14.6 6.5 14.6 14.6v6.5zM4.8 39.2v1.7c0 5.4 4.4 9.8 9.8 9.8h1.7V49c0-5.4-4.4-9.8-9.8-9.8H4.8z"/><path fill="currentColor" d="M21.1 40.3h-6.5C6.5 40.3 0 33.7 0 25.7v-6.5h6.5c8 0 14.6 6.5 14.6 14.6v6.5zM4.8 24v1.7c0 5.4 4.4 9.8 9.8 9.8h1.7v-1.7c0-5.4-4.4-9.8-9.8-9.8H4.8zM23.4 70.7h-6.5v-6.5c0-8 6.5-14.6 14.6-14.6H38v6.5c-.1 8-6.6 14.6-14.6 14.6zm-1.8-4.8h1.7c5.4 0 9.8-4.4 9.8-9.8v-1.7h-1.7c-5.4 0-9.8 4.4-9.8 9.8v1.7z"/><path fill="currentColor" d="M23.4 55.5h-6.5V49c0-8 6.5-14.6 14.6-14.6H38v6.5c-.1 8-6.6 14.6-14.6 14.6zm-1.8-4.8h1.7c5.4 0 9.8-4.4 9.8-9.8v-1.7h-1.7c-5.4 0-9.8 4.4-9.8 9.8v1.7z"/><path fill="currentColor" d="M23.4 40.3h-6.5v-6.5c0-8 6.5-14.6 14.6-14.6H38v6.5c-.1 8-6.6 14.6-14.6 14.6zm-1.8-4.8h1.7c5.4 0 9.8-4.4 9.8-9.8V24h-1.7c-5.4 0-9.8 4.4-9.8 9.8v1.7z"/><path fill="currentColor" d="M18.8 31.1 14 26.4c-2.9-2.9-4.5-6.7-4.5-10.8 0-4.1 1.6-7.9 4.5-10.8L18.8 0l4.8 4.8c2.9 2.9 4.5 6.7 4.5 10.8 0 4.1-1.6 7.9-4.5 10.8l-4.8 4.7zm0-24.3-1.4 1.4c-2 2-3.1 4.6-3.1 7.4 0 2.8 1.1 5.4 3.1 7.4l1.4 1.4 1.4-1.4c2-2 3.1-4.6 3.1-7.4 0-2.8-1.1-5.4-3.1-7.4l-1.4-1.4z"/><path fill="currentColor" d="M18.8 82.8c-1.3 0-2.4-1.1-2.4-2.4V27.7c0-1.3 1.1-2.4 2.4-2.4 1.3 0 2.4 1.1 2.4 2.4v52.7c-.1 1.3-1.1 2.4-2.4 2.4z"/></svg>