<svg xmlns="http://www.w3.org/2000/svg" viewBox="0 0 65.1 71.9" xml:space="preserve"><path fill="currentColor" d="M25.9 5.1c3.3 0 6.4 1.1 8.8 3.2 2 1.8 3.3 4.3 3.8 7 1.3-1.2 3-2 5-2.1h.4c3.8 0 6.9 2.6 7.1 5.9.2 3.4-3 6.4-7 6.6h-.4c-2.3 0-4.3-.9-5.6-2.3-.9 3.2-2.6 6.3-5.1 9.1-4.3 4.7-9.9 7.2-15 7.2-3.3 0-6.4-1.1-8.8-3.2-6.1-5.6-5.3-16.3 1.7-24.1 4.4-4.8 10-7.3 15.1-7.3zm0-5.1C19.1 0 12.3 3.2 7.2 8.9 3 13.5.5 19.1.1 24.8c-.4 6.1 1.7 11.7 5.8 15.4 3.3 3 7.5 4.6 12.3 4.6 6.8 0 13.6-3.2 18.8-8.9 1.5-1.7 2.8-3.5 3.9-5.4 1 .2 2 .3 3 .3h.7c6.8-.3 12.1-5.7 11.8-12-.4-6-5.8-10.7-12.4-10.7h-.7c-.7 0-1.4.1-2 .3-.9-1.4-1.9-2.7-3.1-3.8-3.3-3-7.5-4.6-12.3-4.6zM42.6 71.9c-6 0-11.4-2.7-13.8-7.6-3.6-7.5.9-17.2 10.2-21.7 9.3-4.5 19.8-2.2 23.4 5.3 1.8 3.7 1.7 8.1-.4 12.3-2 4-5.5 7.3-9.8 9.5-3.1 1.4-6.5 2.2-9.6 2.2zm6.3-26.6c-2.4 0-5 .6-7.5 1.8-6.7 3.3-10.3 10-7.9 14.9 2.4 4.9 9.8 6.2 16.6 2.9 3.4-1.6 6-4.2 7.5-7.1 1.3-2.7 1.5-5.5.4-7.7-1.6-3.1-5.1-4.8-9.1-4.8zM12.6 70c-2.7 0-5.4-1-7.8-2.9C2.5 65.2 1 62.7.5 60c-.5-2.9.2-5.6 1.9-7.7C4.2 50.2 6.7 49 9.7 49c2.8 0 5.5 1 7.8 2.9 4.8 4 5.9 10.7 2.4 14.9-1.8 2.1-4.5 3.2-7.3 3.2zM9.8 54.1c-1.4 0-2.6.5-3.4 1.4-.8.9-1.1 2.2-.8 3.5.3 1.5 1.2 3 2.5 4.1 2.6 2.2 6.1 2.3 7.8.3 1.7-2 .9-5.5-1.7-7.7-1.2-1-2.8-1.6-4.4-1.6zM65.1 31.7c0 2.3-1.8 4.1-4.1 4.1s-4.1-1.8-4.1-4.1 1.8-4.1 4.1-4.1 4.1 1.9 4.1 4.1z"/><path fill="currentColor" d="M21.1 28.2c0 2.3-1.8 4.1-4.1 4.1s-4.1-1.8-4.1-4.1 1.8-4.1 4.1-4.1 4.1 1.9 4.1 4.1zM50.7 54.2c-.2 2.3-2.1 4-4.4 3.8-2.3-.2-4-2.1-3.8-4.4.2-2.3 2.1-4 4.4-3.8 2.2.2 3.9 2.2 3.8 4.4z"/></svg>