<svg xmlns="http://www.w3.org/2000/svg" width="69" height="81" viewBox="0 0 69 81" xml:space="preserve"><path fill="currentColor" d="m34.7 81-2-2.1c-.2-.1-.4-.3-.7-.5-2.2-1.6-6.9-4.8-9.9-9.9-.7-1.2-.3-2.8.9-3.5 1.2-.7 2.8-.3 3.5.9 2.3 3.9 6 6.6 8 8 2.1-1.3 5.9-3.8 8.1-7.8.7-1.2 2.3-1.7 3.5-1 1.2.7 1.7 2.3 1 3.5-2.9 5.2-7.7 8.2-10 9.6-.3.2-.6.4-.8.5L34.7 81zm-2-2.2z"/><path fill="currentColor" d="m51.5 72.9-2-1.1c-1.4-.8-2.8-1.3-4.4-1.8-4.2-1.5-9.1-3.3-12.9-10.2-.7-1.2-.2-2.8 1-3.5 1.2-.7 2.8-.2 3.5 1 2.9 5.2 6.3 6.4 10.2 7.8 1 .3 1.9.7 2.9 1.1 1.2-2.1 3.1-5.8 3.6-9.8.2-1.4 1.4-2.4 2.8-2.3 1.4.2 2.4 1.4 2.3 2.8-.9 7.4-5.5 13.7-5.7 14l-1.3 2z"/><path fill="currentColor" d="m17.6 72.9-1.3-1.8c-.2-.3-4.8-6.6-5.7-14-.2-1.4.8-2.7 2.2-2.9 1.4-.2 2.7.8 2.9 2.2.5 3.9 2.3 7.7 3.6 9.8 1-.4 2-.8 2.9-1.1 3.9-1.4 7.3-2.6 10.2-7.9.7-1.2 2.3-1.7 3.5-1 1.2.7 1.7 2.3 1 3.5-3.9 7-8.7 8.7-13 10.3-1.5.6-3 1.1-4.4 1.8l-1.9 1.1zM62.2 60.8l-2.3-.7c-1.5-.4-3-.7-4.7-1-4.1-.7-8.7-1.4-13.4-5.3-1.1-.9-1.2-2.5-.3-3.6.9-1.1 2.5-1.2 3.6-.3 3.6 3 7.2 3.6 10.9 4.2.9.2 1.8.3 2.8.5.7-2.7 1.5-7.5.3-11.9-.4-1.4.5-2.8 1.9-3.1 1.4-.3 2.8.5 3.1 1.9 2.1 8.2-1 16.8-1.1 17.2l-.8 2.1z"/><path fill="currentColor" d="m6.9 60.8-.8-2.3c-.2-.4-3.1-8.7-1.2-16.8.3-1.4 1.7-2.2 3.1-1.9 1.4.3 2.2 1.7 1.9 3.1-1 4.3-.2 9 .4 11.6.9-.2 1.9-.3 2.8-.5 3.8-.6 7.4-1.2 11.2-4.4 1.1-.9 2.7-.8 3.6.3.9 1.1.8 2.7-.3 3.6-4.8 4.1-9.5 4.9-13.7 5.6-1.6.3-3.2.5-4.7 1l-2.3.7z"/><path fill="currentColor" d="m34.7 62.4-2-2.1c-.2-.1-.4-.3-.7-.5-3.3-2.4-12.1-8.9-12.7-19.7-.1-1.4 1-2.6 2.4-2.7 1.4-.1 2.6 1 2.7 2.4.5 8 7.1 13.2 10.2 15.5 3.1-2.1 9.9-6.8 10.2-15.6 0-1.4 1.2-2.5 2.6-2.5 1.4 0 2.5 1.2 2.5 2.6-.3 11.6-9.2 17.6-12.6 19.9-.3.2-.7.4-.8.6l-1.8 2.1z"/><path fill="currentColor" d="M.9 45.8.4 43c-.1-.6-2.8-15.5 7.8-25.1 10.5-9.6 25.6-6.6 26.3-6.4l1.6.3.4 1.6c.1.6 3.2 13.8-7.5 23.5-7.4 6.7-14 7.1-19.3 7.4-2.2.1-4.2.2-6.1.8l-2.7.7zm27.3-29.7c-4.6 0-11.4.9-16.6 5.6C5.5 27.3 5 35.4 5.2 39.5c1.4-.2 2.8-.3 4.2-.3 5.2-.3 10-.6 16.1-6.1 6.5-5.9 6.6-13.5 6.2-16.8-.9-.2-2.1-.2-3.5-.2z"/><path fill="currentColor" d="m68.1 45.8-2.7-.8c-1.9-.5-3.9-.6-6.1-.8-5.3-.3-11.9-.7-19.3-7.4-10.7-9.7-7.6-22.9-7.5-23.5l.4-1.6 1.6-.3c.6-.1 15.7-3.1 26.3 6.4 10.6 9.7 7.9 24.5 7.8 25.1l-.5 2.9zM37.3 16.2C37 19.5 37 27.1 43.5 33c6.1 5.5 10.9 5.8 16.1 6.1l4.2.3c.2-4.1-.3-12.2-6.5-17.8-6.6-6-16.1-5.8-20-5.4z"/><path fill="currentColor" d="M33.9 16.5h-.1c-1.4-.1-2.5-1.3-2.4-2.7 0-.4.6-10.8 9.8-13.7 1.4-.4 2.8.3 3.2 1.7.4 1.4-.3 2.8-1.7 3.2-5.8 1.9-6.3 8.8-6.3 9.1 0 1.4-1.1 2.4-2.5 2.4z"/></svg>